<svg xmlns="http://www.w3.org/2000/svg" width="182.389" height="61.165" viewBox="0 0 182.389 61.165">
  <g id="KLP_Logotipas_RGB_Color" transform="translate(-75 -61.6)">
    <g id="Group_95" data-name="Group 95" transform="translate(147.495 79.722)">
      <rect id="Rectangle_137" data-name="Rectangle 137" width="2.987" height="2.944" transform="translate(68.475 0)" fill="#fff"/>
      <rect id="Rectangle_138" data-name="Rectangle 138" width="2.63" height="20.336" transform="translate(17.867 0)" fill="#fff"/>
      <path id="Path_236" data-name="Path 236" d="M2703.476,689.464a6.836,6.836,0,0,0-3.083-.664,7.251,7.251,0,0,0-4.778,1.795,5,5,0,0,0-1.357,1.882l2.291,1.189a3.958,3.958,0,0,1,1.485-1.765,4.089,4.089,0,0,1,2.305-.664,3.62,3.62,0,0,1,2.418.777,2.522,2.522,0,0,1,.919,2.021v.7l-5.2.857a7.909,7.909,0,0,0-2.812.963,4.393,4.393,0,0,0-1.642,1.652,4.552,4.552,0,0,0-.522,2.192,3.944,3.944,0,0,0,.649,2.247,4.418,4.418,0,0,0,1.794,1.528,6.015,6.015,0,0,0,2.646.551,7.013,7.013,0,0,0,2.4-.4,6.319,6.319,0,0,0,1.923-1.076,5.5,5.5,0,0,0,.821-.85v1.981h2.571V694.031a4.985,4.985,0,0,0-.748-2.729A5.189,5.189,0,0,0,2703.476,689.464Zm-.408,10.761a4.474,4.474,0,0,1-1.667,1.652,4.956,4.956,0,0,1-2.5.609,2.843,2.843,0,0,1-1.878-.62,1.94,1.94,0,0,1-.748-1.554,2.3,2.3,0,0,1,.664-1.667,3.852,3.852,0,0,1,2.134-.934l4.611-.773v.97A4.631,4.631,0,0,1,2703.068,700.225Z" transform="translate(-2670.479 -684.043)" fill="#fff"/>
      <rect id="Rectangle_139" data-name="Rectangle 139" width="2.63" height="15.24" transform="translate(39.162 5.096)" fill="#fff"/>
      <path id="Path_237" data-name="Path 237" d="M3311.375,689.847a7.255,7.255,0,0,0-3.859-1.047,6.888,6.888,0,0,0-3.364.806,6.3,6.3,0,0,0-1.981,1.678v-2.145H3299.6v20.894h2.63v-7.788a5.688,5.688,0,0,0,1.908,1.652,6.908,6.908,0,0,0,3.352.821,7.314,7.314,0,0,0,3.888-1.047,7.48,7.48,0,0,0,2.7-2.856,8.848,8.848,0,0,0,0-8.127A7.58,7.58,0,0,0,3311.375,689.847Zm.255,9.685a4.873,4.873,0,0,1-1.765,1.937,4.763,4.763,0,0,1-2.572.708,4.823,4.823,0,0,1-2.586-.708,5.034,5.034,0,0,1-1.809-1.937,5.729,5.729,0,0,1-.664-2.758,5.794,5.794,0,0,1,.664-2.787,5.035,5.035,0,0,1,1.809-1.937,4.833,4.833,0,0,1,2.586-.708,4.664,4.664,0,0,1,2.572.722,5,5,0,0,1,1.765,1.922,6.369,6.369,0,0,1,0,5.545Z" transform="translate(-3254.47 -684.043)" fill="#fff"/>
      <path id="Path_238" data-name="Path 238" d="M3793.553,690.951a6.767,6.767,0,0,0-2.232-1.641,7.565,7.565,0,0,0-6.789.423,7.441,7.441,0,0,0-2.658,2.812,8.965,8.965,0,0,0,.014,8.156,7.34,7.34,0,0,0,6.643,3.918,7.753,7.753,0,0,0,2.871-.511,7.191,7.191,0,0,0,2.232-1.372,5.616,5.616,0,0,0,1.4-1.908l-2.206-1.131a5.594,5.594,0,0,1-1.7,1.809,4.491,4.491,0,0,1-2.572.708,4.943,4.943,0,0,1-2.56-.693,4.662,4.662,0,0,1-1.81-1.952,5.209,5.209,0,0,1-.532-2.134h11.658q.055-.339.1-.722a6.119,6.119,0,0,0,.044-.693,7.65,7.65,0,0,0-.5-2.729A7.372,7.372,0,0,0,3793.553,690.951Zm-7.678.777a4.56,4.56,0,0,1,2.434-.679,4.27,4.27,0,0,1,3.958,2.517,3.96,3.96,0,0,1,.361,1.612h-8.908a5.149,5.149,0,0,1,.445-1.514A4.53,4.53,0,0,1,3785.875,691.728Z" transform="translate(-3718.214 -683.947)" fill="#fff"/>
      <path id="Path_239" data-name="Path 239" d="M4249.6,565.531a6.287,6.287,0,0,0-1.894-1.569,6.9,6.9,0,0,0-3.363-.806,7.253,7.253,0,0,0-3.859,1.047,7.517,7.517,0,0,0-2.7,2.842,8.848,8.848,0,0,0,0,8.127,7.508,7.508,0,0,0,2.7,2.856,7.252,7.252,0,0,0,3.859,1.047,6.96,6.96,0,0,0,3.378-.821,5.558,5.558,0,0,0,1.966-1.762v2.243h2.572V558.4H4249.6Zm-.665,8.357a5.071,5.071,0,0,1-1.794,1.937,5.026,5.026,0,0,1-5.144,0,4.937,4.937,0,0,1-1.78-1.937,6.242,6.242,0,0,1,0-5.544,5.1,5.1,0,0,1,1.8-1.922,4.687,4.687,0,0,1,2.556-.722,4.747,4.747,0,0,1,2.572.708,5.045,5.045,0,0,1,1.794,1.937,5.778,5.778,0,0,1,.665,2.787A5.691,5.691,0,0,1,4248.939,573.888Z" transform="translate(-4157.483 -558.4)" fill="#fff"/>
      <path id="Path_240" data-name="Path 240" d="M4736.056,691.3a5.153,5.153,0,0,0-2.079-1.839,6.834,6.834,0,0,0-3.083-.664,7.245,7.245,0,0,0-4.778,1.795,5,5,0,0,0-1.357,1.882l2.291,1.189a3.952,3.952,0,0,1,1.485-1.765,4.087,4.087,0,0,1,2.3-.664,3.62,3.62,0,0,1,2.418.777,2.523,2.523,0,0,1,.92,2.021v.7l-5.2.857a7.9,7.9,0,0,0-2.812.963,4.391,4.391,0,0,0-1.642,1.652A4.544,4.544,0,0,0,4724,700.4a3.944,3.944,0,0,0,.649,2.247,4.424,4.424,0,0,0,1.794,1.528,6.016,6.016,0,0,0,2.646.551,7.012,7.012,0,0,0,2.4-.4,6.289,6.289,0,0,0,1.922-1.076,5.579,5.579,0,0,0,.822-.85v1.981h2.57V694.031A5.011,5.011,0,0,0,4736.056,691.3Zm-2.491,8.922a4.476,4.476,0,0,1-1.667,1.652,4.949,4.949,0,0,1-2.5.609,2.844,2.844,0,0,1-1.878-.62,1.939,1.939,0,0,1-.748-1.554,2.3,2.3,0,0,1,.663-1.667,3.857,3.857,0,0,1,2.135-.934l4.611-.773v.97A4.564,4.564,0,0,1,4733.565,700.225Z" transform="translate(-4626.912 -684.043)" fill="#fff"/>
      <path id="Path_241" data-name="Path 241" d="M2077.4,558.4h-3.48l-8.751,10.057V558.4H2062.4v20.336h2.772v-6.219l3.309-3.79,6.672,10.009h3.308L2070.4,566.48Z" transform="translate(-2062.4 -558.4)" fill="#fff"/>
      <rect id="Rectangle_140" data-name="Rectangle 140" width="2.987" height="2.944" transform="translate(38.983 0)" fill="#fff"/>
    </g>
    <g id="Group_97" data-name="Group 97" transform="translate(75 61.6)">
      <g id="Group_96" data-name="Group 96" transform="translate(0 0)">
        <path id="Path_242" data-name="Path 242" d="M105.583,61.6a30.583,30.583,0,1,0,30.582,30.583A30.582,30.582,0,0,0,105.583,61.6Zm0,58.9A28.317,28.317,0,1,1,133.9,92.183,28.317,28.317,0,0,1,105.583,120.5Z" transform="translate(-75 -61.6)" fill="#fff"/>
        <path id="Path_243" data-name="Path 243" d="M1142.126,558.4h-2.265v2.265H1137.6V558.4h-2.265v2.265h-2.265V558.4H1130.8v4.53h11.326Z" transform="translate(-1092.287 -540.278)" fill="#fff"/>
        <path id="Path_244" data-name="Path 244" d="M396.83,558.4h-2.265v2.265H392.3V558.4H390.03v2.265h-2.265V558.4H385.5v4.53h11.33Z" transform="translate(-374.174 -540.278)" fill="#fff"/>
        <path id="Path_245" data-name="Path 245" d="M769.526,372.1h-2.265v2.265H765V372.1h-2.265v2.265h-2.265V372.1H758.2v4.531h11.326Z" transform="translate(-733.279 -360.774)" fill="#fff"/>
        <path id="Path_246" data-name="Path 246" d="M304.343,576.526l-3.4-9.061,3.4-2.265H293.017l3.4,2.265-3.4,9.061h-2.265V558.4H279.426v18.125H277.16l-3.4-9.061,3.4-2.265H265.83l3.4,2.265-3.4,9.061H261.3v2.265h9.061c.2,7,5.541,11.421,14.726,11.421s14.529-4.428,14.726-11.421h9.061v-2.265Zm-20.387-15.86h2.265v4.53h-2.265Zm-2.265,10.2a3.4,3.4,0,1,1,6.8,0v5.665h-6.8Zm-13.6,5.665,3.4-6.971,3.4,6.971Zm16.991,10.192c-5.1,0-9.707-.646-11.5-3.878,2.349,1.536,7.029,1.612,11.5,1.612s9.152-.077,11.5-1.612C294.8,586.075,290.186,586.717,285.087,586.717Zm0-4.53c-8.594,0-12.151-.653-12.461-3.4h24.921C297.241,581.534,293.681,582.187,285.087,582.187Zm10.2-5.661,3.4-6.971,3.4,6.971Z" transform="translate(-254.504 -540.278)" fill="#fff"/>
      </g>
    </g>
  </g>
</svg>
