<?xml version="1.0" encoding="UTF-8" standalone="no"?>
<!-- Created with Inkscape (http://www.inkscape.org/) -->

<svg
   width="540"
   height="240"
   viewBox="0 0 142.875 63.500001"
   version="1.1"
   id="svg5"
   inkscape:version="1.1 (c4e8f9e, 2021-05-24)"
   sodipodi:docname="ripcurl.svg"
   xmlns:inkscape="http://www.inkscape.org/namespaces/inkscape"
   xmlns:sodipodi="http://sodipodi.sourceforge.net/DTD/sodipodi-0.dtd"
   xmlns="http://www.w3.org/2000/svg"
   xmlns:svg="http://www.w3.org/2000/svg">
  <sodipodi:namedview
     id="namedview7"
     pagecolor="#ffffff"
     bordercolor="#666666"
     borderopacity="1.0"
     inkscape:pageshadow="2"
     inkscape:pageopacity="0.0"
     inkscape:pagecheckerboard="0"
     inkscape:document-units="mm"
     showgrid="false"
     units="px"
     width="793.70081px"
     fit-margin-top="0.1"
     fit-margin-left="0.1"
     fit-margin-right="0.1"
     fit-margin-bottom="0.1"
     inkscape:zoom="0.46769781"
     inkscape:cx="171.05062"
     inkscape:cy="561.25984"
     inkscape:window-width="1280"
     inkscape:window-height="747"
     inkscape:window-x="0"
     inkscape:window-y="25"
     inkscape:window-maximized="0"
     inkscape:current-layer="layer1" />
  <defs
     id="defs2" />
  <g
     inkscape:label="Layer 1"
     inkscape:groupmode="layer"
     id="layer1">
    <g
       id="g20"
       transform="matrix(0.24202711,0,0,0.17681899,4.666558,24.902685)"
       style="fill:#ffffff;fill-opacity:1"
       inkscape:export-filename="/Users/admin/Downloads/ripcurl.png"
       inkscape:export-xdpi="34.751125"
       inkscape:export-ydpi="34.751125">
      <path
         class="st0"
         d="M 550,75.3 C 496.9,84.3 448,57.9 448.7,37.6 449.3,18.3 481.1,19.4 492.7,22.1 467.1,2.4 423.1,5.2 412.5,5.9 411.2,6 410.2,5.3 410.2,4.5 c 0,-0.8 0.5,-1.6 2.1,-1.8 116.9,-16.3 115.3,52 115.3,52 0,0 -14.1,-16.6 -30.9,-20 -8.7,-1.8 -20.2,-0.9 -20.7,6.5 -1,16.6 39.5,33.9 73.7,30.9 2.7,-0.1 2.7,2.8 0.3,3.2 z"
         id="path4"
         inkscape:connector-curvature="0"
         style="fill:#ffffff;fill-opacity:1" />
      <path
         d="m 266.3,77.4 c -4.2,0 -7.7,-0.4 -11.5,-1.5 -3.9,-1.1 -7.2,-2.8 -10.2,-5.2 -2.9,-2.4 -5.3,-5.7 -7,-9.7 C 235.9,57 235,52 235,46.2 V 1.4 h 19.5 v 45 c 0,2.2 0.3,4.2 1,5.9 0.7,1.7 1.6,3.2 2.7,4.3 1.1,1.2 2.4,2 3.9,2.6 1.5,0.6 2.5,0.8 4.2,0.8 1.7,0 2.6,-0.1 4.1,-0.7 1.5,-0.6 2.8,-1.5 3.9,-2.6 1.1,-1.2 2,-2.6 2.7,-4.3 0.7,-1.7 1,-3.7 1,-5.9 V 1.4 h 19.5 v 44.8 c 0,5.9 -0.9,10.8 -2.6,14.8 -1.7,4 -4.1,7.2 -7,9.7 -2.9,2.4 -6.3,4.2 -10.2,5.2 -3.7,1.1 -7.1,1.5 -11.4,1.5 z"
         id="path6"
         inkscape:connector-curvature="0"
         style="fill:#ffffff;fill-opacity:1" />
      <rect
         x="67.699997"
         y="1.4"
         width="19.4"
         height="74.5"
         id="rect8"
         style="fill:#ffffff;fill-opacity:1" />
      <polygon
         points="395.5,58.1 395.6,1.4 376.1,1.4 376.1,75.9 419.2,75.9 419.2,58.1 "
         id="polygon10"
         style="fill:#ffffff;fill-opacity:1" />
      <path
         d="m 154.5,19.7 c -0.5,-2 -1.2,-3.9 -2.2,-5.7 -1,-1.8 -2.1,-3.5 -3.5,-5 -1.4,-1.6 -2.9,-2.9 -4.6,-4 -1.7,-1.1 -3.6,-2 -5.6,-2.6 -2,-0.6 -4.2,-1 -6.5,-1 H 97.8 v 74.5 h 19.4 v -26 h 15.2 c 3.4,0 6.5,-0.7 9.3,-2.1 2.8,-1.4 5.2,-3.2 7.2,-5.4 2,-2.2 3.6,-4.8 4.6,-7.7 1.1,-2.9 1.6,-5.8 1.6,-8.8 0.1,-2.2 -0.1,-4.2 -0.6,-6.2 z m -19.4,9.1 c -0.4,1 -0.9,1.9 -1.5,2.7 -0.7,0.8 -1.5,1.4 -2.4,1.9 -1,0.5 -2.1,0.7 -3.3,0.7 H 117.3 V 16.7 h 10.6 c 1.2,0 2.3,0.3 3.2,0.8 1,0.5 1.8,1.1 2.4,1.9 0.7,0.8 1.2,1.7 1.5,2.7 0.4,1 0.5,2.6 0.5,3.6 0.1,1 -0.1,2.1 -0.4,3.1 z"
         id="path12"
         inkscape:connector-curvature="0"
         style="fill:#ffffff;fill-opacity:1" />
      <path
         d="m 228.2,69.8 2.1,-1.5 -1.2,-1.6 c 0,0 0,0 0,-0.1 l -2,-2.6 v 0 0 l -5.3,-7.1 v 0 l -3,-4.1 -3.7,2.8 c -1,0.6 -2.1,1.2 -3.3,1.7 -2,0.8 -4.1,1.2 -6.3,1.3 -2.8,0.1 -5.3,-0.3 -7.7,-1.3 -2.4,-1 -4.4,-2.3 -6.2,-4 -1.8,-1.7 -3.2,-3.8 -4.2,-6.2 -1,-2.4 -1.6,-4.9 -1.7,-7.7 -0.1,-2.8 0.3,-5.4 1.1,-7.8 0.8,-2.5 2.1,-4.6 3.7,-6.5 1.6,-1.9 3.6,-3.4 5.8,-4.5 2.3,-1.1 4.8,-1.8 7.6,-1.9 2.2,-0.1 4.3,0.2 6.4,0.8 2,0.6 3.9,1.5 5.6,2.7 0.1,0.1 0.2,0.1 0.3,0.1 l 1.4,0.9 0.9,-1.5 c 0,-0.1 0.1,-0.1 0.1,-0.2 L 226.7,9 c 0,-0.1 0.1,-0.2 0.1,-0.2 l 0.9,-1.5 -1.5,-0.9 C 226,6.2 225.7,6 225.4,5.8 c -3.3,-2 -6.7,-3.5 -10.3,-4.5 -3.6,-1 -7.5,-1.4 -11.5,-1.2 -3.6,0.1 -7,0.7 -10.2,1.8 -3.2,1.1 -6.3,2.5 -9.1,4.3 -2.8,1.8 -5.3,3.9 -7.6,6.3 -2.3,2.5 -4.2,5.2 -5.7,8.1 -1.6,2.9 -2.7,6.1 -3.5,9.4 -0.8,3.3 -1.1,6.8 -1,10.3 0.1,3.6 0.7,7 1.8,10.2 1,3.2 2.5,6.3 4.3,9 1.8,2.8 3.9,5.3 6.3,7.6 2.4,2.3 5.1,4.2 8,5.7 2.9,1.6 6.1,2.8 9.4,3.5 3.3,0.8 6.8,1.1 10.3,1 4,-0.2 7.9,-0.9 11.5,-2.2 2.8,-1 5.5,-2.4 8,-4 v 0 l 1.7,-1.2 c 0.2,0 0.3,0 0.4,-0.1 0,0 0,0 0,0 z"
         id="path14"
         inkscape:connector-curvature="0"
         style="fill:#ffffff;fill-opacity:1" />
      <path
         d="m 44.9,46.6 c 1.8,-1 3.5,-2.3 5,-3.7 0.2,-0.2 0.4,-0.4 0.6,-0.6 1.3,-1.3 2.4,-2.7 3.3,-4.2 1.1,-1.8 2,-3.7 2.6,-5.8 0.6,-2.1 0.9,-4.2 0.9,-6.5 0,-0.3 0,-0.7 0,-1 -0.1,-3 -0.7,-5.8 -1.9,-8.4 -1.3,-3 -3.1,-5.5 -5.3,-7.7 C 47.9,6.5 45.2,4.7 42.2,3.5 39.2,2.2 36,1.6 32.5,1.6 H 0 V 76.1 H 19.4 V 16.7 c 0,0 5.5,0 8.3,0 0,0 0,0 0,0 0,0 0,0 0,0 0.1,0 0.1,0 0.2,0 v 0 c 5.3,0.1 9.5,4.2 9.5,9.3 0,4.2 -2.5,7.4 -7.1,9 -4,1.3 -7,4.7 -7,8.9 0,0.8 0.2,1.6 0.4,2.4 0.5,2.3 1.6,4.6 2.5,6.2 L 37.7,74 c 0.4,0.7 0.4,0.8 0.9,1.4 0.4,0.4 1,0.5 1.5,0.5 h 20.4 z"
         id="path16"
         inkscape:connector-curvature="0"
         style="fill:#ffffff;fill-opacity:1" />
      <path
         d="m 353.2,46.6 c 1.8,-1 3.5,-2.3 5,-3.7 0.2,-0.2 0.4,-0.4 0.6,-0.6 1.3,-1.3 2.4,-2.7 3.3,-4.2 1.1,-1.8 2,-3.7 2.6,-5.8 0.6,-2.1 0.9,-4.2 0.9,-6.5 0,-0.3 0,-0.7 0,-1 -0.1,-3 -0.7,-5.8 -1.9,-8.4 -1.3,-3 -3.1,-5.5 -5.3,-7.7 -2.2,-2.2 -4.9,-4 -7.9,-5.2 -3,-1.3 -6.2,-1.9 -9.7,-1.9 h -32.6 v 74.5 h 19.4 V 16.7 c 0,0 5.5,0 8.3,0 0,0 0,0 0,0 0,0 0,0 0,0 0.1,0 0.1,0 0.2,0 v 0 c 5.3,0.1 9.5,4.2 9.5,9.3 0,4.2 -2.5,7.4 -7.1,9 -4,1.3 -7,4.7 -7,8.9 0,0.8 0.2,1.6 0.4,2.4 0.5,2.3 1.6,4.6 2.5,6.2 L 346,74 c 0.4,0.7 0.4,0.8 0.9,1.4 0.4,0.4 1,0.5 1.5,0.5 h 20.4 z"
         id="path18"
         inkscape:connector-curvature="0"
         style="fill:#ffffff;fill-opacity:1" />
    </g>
  </g>
  <style
     type="text/css"
     id="style2">
	.st0{fill:#070606;}
</style>
</svg>
